<svg width="420" height="75" viewBox="0 0 420 75" fill="none" xmlns="http://www.w3.org/2000/svg">
<line y1="73" x2="420" y2="73" stroke="#4BAA9E" stroke-width="4"/>
<path d="M15.6383 45V13.416H24.2303C26.3743 13.416 28.2143 13.736 29.7503 14.376C31.3183 15.016 32.5183 15.944 33.3503 17.16C34.2143 18.344 34.6462 19.816 34.6462 21.576C34.6462 22.984 34.3583 24.296 33.7823 25.512C33.2383 26.728 32.4703 27.784 31.4783 28.68C30.4863 29.576 29.3023 30.28 27.9263 30.792C26.5823 31.272 25.0783 31.512 23.4143 31.512H17.0303V28.92H23.8463C26.0223 28.92 27.7663 28.296 29.0783 27.048C30.4223 25.768 31.0943 24.136 31.0943 22.152C31.0943 20.2 30.4703 18.696 29.2223 17.64C28.0063 16.584 26.2463 16.056 23.9423 16.056H19.0943V45H15.6383ZM33.9263 45L24.2303 30.552L27.1103 29.496L38.3423 45H33.9263ZM66.7226 45L55.4426 15.384H56.7866L45.5546 45H41.9546L54.9626 13.416H57.9866L70.5146 45H66.7226ZM47.6666 34.152L48.6746 31.32H62.8826L64.4186 34.152H47.6666ZM77.7945 45V13.416H96.3225V16.248H81.3465V45H77.7945ZM78.9945 31.464V28.632H94.4985V31.464H78.9945ZM124.238 45L112.958 15.384H114.302L103.07 45H99.4703L112.478 13.416H115.502L128.03 45H124.238ZM105.182 34.152L106.19 31.32H120.398L121.934 34.152H105.182ZM155.23 45H135.31V13.416H153.742V16.248H138.766V42.168H155.23V45ZM136.51 30.36V27.624H151.918V30.36H136.51ZM163.107 45V13.416H166.659V45H163.107ZM164.307 45V42.168H183.075V45H164.307ZM222.863 45L211.583 15.384H212.927L201.695 45H198.095L211.103 13.416H214.127L226.655 45H222.863ZM203.807 34.152L204.815 31.32H219.023L220.559 34.152H203.807ZM233.935 45V13.416H237.487V45H233.935ZM235.135 45V42.168H253.903V45H235.135ZM290.903 45L289.559 15.048L291.191 14.472L277.991 42.312H275.831L263.111 15.864L263.159 13.416H265.655L277.943 38.76H276.839L288.839 13.416H292.583L294.455 45H290.903ZM259.559 45L261.623 13.416H264.215L262.823 45H259.559ZM324.121 45H304.201V13.416H322.633V16.248H307.657V42.168H324.121V45ZM305.401 30.36V27.624H320.809V30.36H305.401ZM332.334 45V13.416H336.03V45H332.334ZM346.81 45V13.416H356.602C359.258 13.416 361.674 13.768 363.85 14.472C366.026 15.176 367.898 16.2 369.466 17.544C371.034 18.888 372.234 20.504 373.066 22.392C373.898 24.28 374.314 26.392 374.314 28.728C374.314 30.744 373.978 32.728 373.306 34.68C372.634 36.632 371.578 38.392 370.138 39.96C368.698 41.496 366.842 42.728 364.57 43.656C362.298 44.552 359.61 45 356.506 45H346.81ZM350.362 42.408H356.794C359.29 42.408 361.402 42.056 363.13 41.352C364.89 40.648 366.314 39.688 367.402 38.472C368.522 37.224 369.322 35.832 369.802 34.296C370.314 32.728 370.57 31.064 370.57 29.304C370.57 26.872 370.042 24.664 368.986 22.68C367.962 20.664 366.378 19.064 364.234 17.88C362.09 16.664 359.37 16.056 356.074 16.056H350.362V42.408ZM403.754 45L392.474 15.384H393.818L382.586 45H378.986L391.994 13.416H395.018L407.546 45H403.754ZM384.698 34.152L385.706 31.32H399.914L401.45 34.152H384.698Z" fill="url(#paint0_linear_2102_89)"/>
<defs>
<linearGradient id="paint0_linear_2102_89" x1="0" y1="53" x2="420" y2="53" gradientUnits="userSpaceOnUse">
<stop stop-color="#4BAA9E"/>
</linearGradient>
</defs>
</svg>
